<?xml version="1.0" encoding="utf-8"?>
<!-- Generator: Adobe Illustrator 19.2.1, SVG Export Plug-In . SVG Version: 6.00 Build 0)  -->
<svg version="1.1" id="Layer_3_copy_5" xmlns="http://www.w3.org/2000/svg" xmlns:xlink="http://www.w3.org/1999/xlink" x="0px"
	 y="0px" viewBox="0 0 592.873 120" style="enable-background:new 0 0 592.873 120;" xml:space="preserve">
<g>
	<path style="fill:#FFFFFF;" d="M1.236,30.09c5.894-3.451,14.377-5.033,21.853-5.033c21.709,0,28.035,12.508,28.035,32.922
		c0,28.179-11.502,36.231-28.753,36.231c-3.882,0-7.477-0.432-10.496-1.295v27.459H1.236V30.09z M11.874,83.139
		c1.725,1.151,5.464,1.87,10.208,1.87c11.645,0,18.258-5.894,18.258-27.459c0-13.802-2.875-23.147-17.971-23.147
		c-5.032,0-9.345,1.007-10.496,1.87V83.139z"/>
	<path style="fill:#FFFFFF;" d="M64.344,37.565c2.013-4.456,8.626-12.508,23.722-12.508c14.952,0,20.558,7.908,20.558,19.409V88.46
		c-5.463,4.312-13.945,6.47-23.003,6.47c-13.082,0-23.29-4.889-23.29-18.258c0-14.09,11.502-21.997,35.654-24.298v-5.75
		c0-7.906-2.156-12.22-10.495-12.22c-7.907,0-12.508,4.026-14.665,8.194L64.344,37.565z M97.986,61.286
		c-15.239,1.438-24.872,5.752-24.872,14.809c0,6.038,4.601,9.776,13.227,9.776c5.175,0,8.913-0.863,11.645-2.589V61.286z"/>
	<path style="fill:#FFFFFF;" d="M125.153,30.09c4.601-2.877,12.076-5.033,18.978-5.033c6.757,0,12.939,2.3,15.958,8.77l-8.626,4.17
		c-1.869-2.588-4.744-3.594-8.195-3.594c-2.875,0-5.75,0.575-7.476,1.726v57.65h-10.639V30.09z"/>
	<path style="fill:#FFFFFF;" d="M176.475,35.121h-10.064v-8.77h10.064V8.669h10.639v17.683h17.539v8.77h-17.539v39.536
		c0,6.901,1.581,10.64,7.044,10.64c3.451,0,6.326-1.295,8.339-3.451l5.175,7.475c-3.163,3.451-8.194,5.464-14.808,5.464
		c-11.07,0-16.389-5.75-16.389-17.685V35.121z"/>
	<path style="fill:#FFFFFF;" d="M219.457,106.286c1.581,1.293,4.025,2.731,7.332,2.731c4.313,0,7.045-1.868,10.495-13.083
		l1.007-3.307c-5.464-3.737-8.627-10.494-12.652-23.577l-12.796-42.699h11.502l10.783,38.243c2.588,9.201,4.744,14.232,6.613,16.532
		l17.108-54.775h11.214l-24.44,74.759c-5.032,15.383-11.789,17.395-19.696,17.395c-4.888,0-9.92-2.012-11.789-4.026L219.457,106.286
		z"/>
	<path style="fill:#FFFFFF;" d="M324.404,87.74c-2.875,3.451-9.345,7.189-20.558,7.189c-18.834,0-26.453-11.646-26.453-33.931
		c0-22.139,7.476-35.941,26.597-35.941c10.35,0,16.964,4.026,20.271,12.076l-9.201,4.601c-1.868-4.026-4.744-7.333-11.501-7.333
		c-10.927,0-15.383,9.201-15.383,25.735c0,17.827,5.175,25.591,16.676,25.591c5.75,0,10.064-2.014,14.09-5.894L324.404,87.74z"/>
	<path style="fill:#FFFFFF;" d="M407.306,77.389c2.302,4.601,6.614,8.484,14.378,8.484c6.47,0,11.213-2.733,11.213-9.489
		c0-15.529-31.054-10.208-31.054-32.924c0-10.494,8.194-18.402,21.277-18.402c11.071,0,17.395,4.889,20.272,10.927l-8.484,5.031
		c-2.156-4.458-6.47-6.757-12.22-6.757c-6.614,0-10.35,3.738-10.35,8.913c0,14.664,31.196,9.633,31.196,32.348
		c0,13.371-10.206,19.409-21.995,19.409c-13.515,0-19.984-6.901-22.284-11.79L407.306,77.389z"/>
	<g>
		<linearGradient id="SVGID_1_" gradientUnits="userSpaceOnUse" x1="338.7135" y1="43.9814" x2="364.5545" y2="22.9855">
			<stop  offset="0" style="stop-color:#137ADA"/>
			<stop  offset="1" style="stop-color:#0A3D6D"/>
		</linearGradient>
		<polygon style="fill:url(#SVGID_1_);" points="361.963,33.14 369.246,16.579 328.994,43.83 317.828,61.83 		"/>
		<linearGradient id="SVGID_2_" gradientUnits="userSpaceOnUse" x1="317.8281" y1="39.2042" x2="369.2463" y2="39.2042">
			<stop  offset="0" style="stop-color:#137ADA"/>
			<stop  offset="1" style="stop-color:#0A3D6D"/>
		</linearGradient>
		<polygon style="fill:url(#SVGID_2_);" points="361.963,33.14 369.246,16.579 328.994,43.83 317.828,61.83 		"/>
		<linearGradient id="SVGID_3_" gradientUnits="userSpaceOnUse" x1="317.944" y1="69.6947" x2="394.9626" y2="69.6947">
			<stop  offset="0" style="stop-color:#137ADA"/>
			<stop  offset="1" style="stop-color:#0A3D6D"/>
		</linearGradient>
		<polygon style="fill:url(#SVGID_3_);" points="361.963,33.14 385.44,65.365 361.583,35.225 317.944,64.481 349.893,106.25 
			394.963,78.327 		"/>
		<g>
			<linearGradient id="SVGID_4_" gradientUnits="userSpaceOnUse" x1="361.9628" y1="47.4529" x2="398.4272" y2="47.4529">
				<stop  offset="0" style="stop-color:#137ADA"/>
				<stop  offset="1" style="stop-color:#0A3D6D"/>
			</linearGradient>
			<polygon style="fill:url(#SVGID_4_);" points="361.963,33.14 369.246,16.579 398.427,57.079 394.963,78.327 			"/>
		</g>
		<g>
			<polygon style="fill:#0A3D6E;" points="394.963,78.327 349.893,106.25 358.123,82.608 398.427,57.079 			"/>
		</g>
		<g style="opacity:0.5;">
			<polygon style="fill:#137ADA;" points="361.963,33.14 369.246,16.579 398.427,57.079 394.963,78.327 			"/>
		</g>
		<g>
			<g>
				<path style="fill:#FFFFFF;" d="M349.315,64.928c0.908-0.596,1.909-0.983,2.943-1.171c1.034-0.189,2.099-0.179,3.134,0.019
					c1.035,0.198,2.039,0.583,2.95,1.143c0.911,0.561,1.728,1.297,2.391,2.196c0.661,0.897,1.103,1.871,1.338,2.864
					c0.235,0.992,0.262,2.002,0.093,2.973c-0.169,0.97-0.533,1.9-1.083,2.734c-0.549,0.833-1.283,1.569-2.192,2.152
					c-0.907,0.583-1.904,0.958-2.929,1.139c-1.024,0.18-2.078,0.166-3.1-0.031c-1.022-0.197-2.014-0.577-2.915-1.128
					c-0.901-0.551-1.712-1.275-2.372-2.159c-0.662-0.887-1.11-1.85-1.355-2.835c-0.244-0.986-0.284-1.992-0.128-2.962
					c0.156-0.972,0.509-1.907,1.049-2.748C347.68,66.272,348.409,65.524,349.315,64.928z"/>
			</g>
		</g>
		<g>
			<polygon style="fill:#0D5190;" points="334.416,51.047 328.994,43.83 317.828,61.83 			"/>
			<polygon style="fill:#0D5190;" points="317.944,64.481 349.893,106.25 358.123,82.608 335.61,52.637 			"/>
		</g>
		<g>
			<g>
				<path style="fill:#FFFFFF;" d="M369.228,24.046c0.001-0.002,0.002-0.004,0.003-0.006c0.001-0.002,0.002-0.004,0.003-0.006
					c0.001-0.002,0.002-0.004,0.003-0.006c0.001-0.002,0.002-0.004,0.003-0.006c0.148-0.329,0.416-0.475,0.774-0.458
					c0.356,0.016,0.8,0.194,1.303,0.513c0.501,0.318,1.061,0.777,1.65,1.359c0.588,0.58,1.205,1.282,1.823,2.088
					c0.613,0.799,1.17,1.627,1.653,2.441c0.484,0.814,0.894,1.616,1.213,2.362c0.32,0.747,0.548,1.44,0.666,2.033
					c0.118,0.596,0.126,1.093,0.003,1.447c-0.001,0.002-0.001,0.004-0.002,0.006c-0.001,0.002-0.001,0.004-0.002,0.006
					s-0.001,0.004-0.002,0.006c-0.001,0.002-0.001,0.004-0.002,0.006c-0.13,0.351-0.381,0.523-0.725,0.531
					c-0.345,0.008-0.782-0.148-1.282-0.451c-0.502-0.304-1.068-0.757-1.667-1.339c-0.6-0.584-1.234-1.297-1.869-2.122
					c-0.634-0.822-1.208-1.676-1.705-2.515c-0.497-0.839-0.914-1.662-1.235-2.424c-0.32-0.761-0.542-1.46-0.648-2.053
					C369.077,24.867,369.086,24.382,369.228,24.046z"/>
			</g>
		</g>
		<g>
			<g>
				<path style="fill:#FFFFFF;" d="M384.829,55.97c0.001-0.003,0.001-0.005,0.002-0.008c0.001-0.003,0.001-0.005,0.002-0.008
					s0.001-0.005,0.002-0.008s0.001-0.005,0.002-0.007c0.122-0.426,0.37-0.661,0.713-0.72c0.342-0.059,0.778,0.054,1.279,0.325
					c0.499,0.269,1.063,0.694,1.663,1.259c0.598,0.563,1.232,1.266,1.873,2.092c0.636,0.82,1.219,1.687,1.732,2.554
					c0.513,0.868,0.955,1.736,1.306,2.559c0.352,0.824,0.613,1.603,0.763,2.289c0.15,0.688,0.189,1.282,0.094,1.735
					c-0.001,0.003-0.001,0.005-0.002,0.008c-0.001,0.003-0.001,0.005-0.002,0.008s-0.001,0.005-0.002,0.008
					c-0.001,0.003-0.001,0.005-0.002,0.008c-0.102,0.451-0.331,0.713-0.659,0.801c-0.329,0.088-0.757-0.001-1.254-0.252
					c-0.499-0.252-1.069-0.667-1.679-1.231c-0.611-0.565-1.262-1.279-1.921-2.126c-0.658-0.845-1.261-1.74-1.789-2.635
					c-0.528-0.895-0.979-1.789-1.333-2.631c-0.353-0.841-0.609-1.629-0.747-2.316C384.734,56.987,384.713,56.404,384.829,55.97z"/>
			</g>
		</g>
		<g>
			<g>
				<path style="fill:#FFFFFF;" d="M362.919,23.876c0.001,0,0.003,0.001,0.004,0.001s0.003,0.001,0.004,0.001
					c0.001,0,0.003,0.001,0.004,0.001s0.003,0.001,0.004,0.001c0.248,0.079,0.335,0.263,0.28,0.526
					c-0.055,0.263-0.251,0.605-0.569,1.003c-0.317,0.397-0.754,0.849-1.294,1.334c-0.539,0.484-1.18,1-1.905,1.527
					c-0.719,0.522-1.455,1.006-2.171,1.434c-0.716,0.428-1.413,0.802-2.055,1.104c-0.643,0.302-1.23,0.532-1.724,0.672
					c-0.496,0.141-0.899,0.191-1.171,0.133c-0.002,0-0.003-0.001-0.005-0.001c-0.002,0-0.003-0.001-0.005-0.001
					s-0.003-0.001-0.005-0.001c-0.002,0-0.003-0.001-0.005-0.001c-0.269-0.064-0.378-0.233-0.345-0.484
					c0.034-0.252,0.212-0.587,0.516-0.982c0.306-0.396,0.738-0.852,1.28-1.344c0.543-0.493,1.196-1.023,1.938-1.564
					c0.74-0.539,1.499-1.038,2.237-1.479c0.737-0.44,1.453-0.821,2.108-1.125c0.653-0.303,1.246-0.53,1.738-0.661
					C362.272,23.839,362.664,23.802,362.919,23.876z"/>
			</g>
		</g>
		<g>
			<g>
				<path style="fill:#FFFFFF;" d="M336.475,45.5c0.001,0,0.003,0.001,0.004,0.001c0.001,0,0.003,0.001,0.004,0.001
					c0.001,0,0.003,0.001,0.004,0.001c0.001,0,0.003,0.001,0.004,0.001c0.248,0.079,0.335,0.263,0.28,0.526
					c-0.055,0.263-0.251,0.605-0.569,1.003c-0.317,0.397-0.754,0.849-1.294,1.334c-0.539,0.484-1.18,1-1.905,1.527
					c-0.719,0.522-1.455,1.006-2.171,1.434c-0.716,0.428-1.413,0.802-2.055,1.104c-0.643,0.302-1.23,0.532-1.724,0.672
					c-0.496,0.141-0.899,0.191-1.171,0.133c-0.002,0-0.003-0.001-0.005-0.001c-0.002,0-0.003-0.001-0.005-0.001
					s-0.003-0.001-0.005-0.001c-0.002,0-0.003-0.001-0.005-0.001c-0.269-0.064-0.378-0.233-0.345-0.484
					c0.034-0.252,0.212-0.587,0.516-0.982c0.306-0.396,0.738-0.852,1.28-1.344c0.543-0.493,1.196-1.023,1.938-1.563
					c0.74-0.539,1.499-1.038,2.237-1.479c0.737-0.44,1.453-0.821,2.108-1.125c0.653-0.303,1.246-0.53,1.738-0.661
					C335.828,45.463,336.22,45.426,336.475,45.5z"/>
			</g>
		</g>
		<g>
			<g>
				<path style="fill:#FFFFFF;" d="M349.697,34.688c0.001,0,0.003,0.001,0.004,0.001c0.001,0,0.003,0.001,0.004,0.001
					c0.001,0,0.003,0.001,0.004,0.001s0.003,0.001,0.004,0.001c0.248,0.079,0.335,0.263,0.28,0.526
					c-0.055,0.263-0.251,0.605-0.569,1.003c-0.317,0.397-0.754,0.849-1.294,1.334c-0.539,0.484-1.18,1-1.905,1.527
					c-0.719,0.522-1.455,1.006-2.171,1.434c-0.716,0.428-1.413,0.802-2.055,1.104c-0.643,0.302-1.23,0.532-1.724,0.672
					c-0.496,0.141-0.899,0.191-1.171,0.133c-0.002,0-0.003-0.001-0.005-0.001s-0.003-0.001-0.005-0.001s-0.003-0.001-0.005-0.001
					c-0.002,0-0.003-0.001-0.005-0.001c-0.269-0.064-0.378-0.233-0.345-0.484c0.034-0.252,0.212-0.587,0.516-0.982
					c0.306-0.396,0.738-0.852,1.28-1.344c0.543-0.493,1.196-1.023,1.938-1.563c0.74-0.539,1.499-1.038,2.237-1.479
					c0.737-0.44,1.453-0.821,2.108-1.125c0.653-0.303,1.246-0.53,1.738-0.661C349.05,34.651,349.442,34.614,349.697,34.688z"/>
			</g>
		</g>
		<g>
			<g>
				<path style="fill:#FFFFFF;" d="M349.315,64.928c0.908-0.596,1.909-0.983,2.943-1.171c1.034-0.189,2.099-0.179,3.134,0.019
					c1.035,0.198,2.039,0.583,2.95,1.143c0.911,0.561,1.728,1.297,2.391,2.196c0.661,0.897,1.103,1.871,1.338,2.864
					c0.235,0.992,0.262,2.002,0.093,2.973c-0.169,0.97-0.533,1.9-1.083,2.734c-0.549,0.833-1.283,1.569-2.192,2.152
					c-0.907,0.583-1.904,0.958-2.929,1.139c-1.024,0.18-2.078,0.166-3.1-0.031c-1.022-0.197-2.014-0.577-2.915-1.128
					c-0.901-0.551-1.712-1.275-2.372-2.159c-0.662-0.887-1.11-1.85-1.355-2.835c-0.244-0.986-0.284-1.992-0.128-2.962
					c0.156-0.972,0.509-1.907,1.049-2.748C347.68,66.272,348.409,65.524,349.315,64.928z"/>
			</g>
		</g>
	</g>
	<path style="fill:#FFFFFF;" d="M407.306,77.389c2.302,4.601,6.614,8.484,14.378,8.484c6.47,0,11.213-2.733,11.213-9.489
		c0-15.529-31.054-10.208-31.054-32.924c0-10.494,8.194-18.402,21.277-18.402c11.071,0,17.395,4.889,20.272,10.927l-8.484,5.031
		c-2.156-4.458-6.47-6.757-12.22-6.757c-6.614,0-10.35,3.738-10.35,8.913c0,14.664,31.196,9.633,31.196,32.348
		c0,13.371-10.206,19.409-21.995,19.409c-13.515,0-19.984-6.901-22.284-11.79L407.306,77.389z"/>
	<path style="fill:#FFFFFF;" d="M460.953,0.905c4.17,0,7.189,3.307,7.189,7.189c0,4.024-3.019,7.187-7.189,7.187
		c-4.168,0-7.187-3.163-7.187-7.187C453.765,4.212,456.784,0.905,460.953,0.905z M455.634,26.352h10.638v67.427h-10.638V26.352z"/>
	<path style="fill:#FFFFFF;" d="M480.382,29.947c5.175-2.875,14.376-4.889,23.147-4.889c21.421,0,25.302,11.071,25.302,29.042v39.68
		h-10.638v-37.38c0-14.232-1.438-21.997-15.239-21.997c-4.458,0-9.776,0.863-11.932,2.012v57.364h-10.64V29.947z"/>
	<path style="fill:#FFFFFF;" d="M538.482,61.143c0-23.002,6.757-36.085,27.747-36.085c20.272,0,26.31,11.932,26.31,34.361
		s-6.038,35.511-27.747,35.511C544.808,94.93,538.482,83.571,538.482,61.143z M581.756,58.699c0-17.539-3.451-24.296-15.671-24.296
		c-12.508,0-16.82,7.045-16.82,26.596c0,17.685,3.593,24.73,15.815,24.73C577.3,85.729,581.756,78.827,581.756,58.699z"/>
</g>
</svg>
